HIERARCHY
ROOT hip
{
  OFFSET 0 0 0
  CHANNELS 6 Xposition Yposition Zposition Zrotation Yrotation Xrotation
  JOINT abdomen
  {
    OFFSET 0 20.6881 -0.73152
    CHANNELS 3 Zrotation Xrotation Yrotation
    JOINT chest
    {
      OFFSET 0 11.7043 -0.48768
      CHANNELS 3 Zrotation Xrotation Yrotation
      JOINT neck
      {
        OFFSET 0 22.1894 -2.19456
        CHANNELS 3 Zrotation Xrotation Yrotation
        JOINT head
        {
          OFFSET -0.24384 7.07133 1.2192
          CHANNELS 3 Zrotation Xrotation Yrotation
          JOINT leftEye
          {
            OFFSET 4.14528 8.04674 8.04672
            CHANNELS 3 Zrotation Xrotation Yrotation
            End Site
            {
              OFFSET 1 0 0
            }
          }
          JOINT rightEye
          {
            OFFSET -3.6576 8.04674 8.04672
            CHANNELS 3 Zrotation Xrotation Yrotation
            End Site
            {
              OFFSET 1 0 0
            }
          }
        }
      }
      JOINT rCollar
      {
        OFFSET -2.68224 19.2634 -4.8768
        CHANNELS 3 Zrotation Xrotation Yrotation
        JOINT rShldr
        {
          OFFSET -8.77824 -1.95073 1.46304
          CHANNELS 3 Zrotation Xrotation Yrotation
          JOINT rForeArm
          {
            OFFSET -28.1742 -1.7115 0.48768
            CHANNELS 3 Zrotation Xrotation Yrotation
            JOINT rHand
            {
              OFFSET -22.5879 0.773209 7.07136
              CHANNELS 3 Zrotation Xrotation Yrotation
              JOINT rThumb1
              {
                OFFSET -1.2192 -0.487915 3.41376
                CHANNELS 3 Zrotation Xrotation Yrotation
                JOINT rThumb2
                {
                  OFFSET -3.37035 -0.52449 3.41376
                  CHANNELS 3 Zrotation Xrotation Yrotation
                  End Site
                  {
                    OFFSET -1.78271 -1.18214 1.43049
                  }
                }
              }
              JOINT rIndex1
              {
                OFFSET -7.75947 0.938293 5.60832
                CHANNELS 3 Zrotation Xrotation Yrotation
                JOINT rIndex2
                {
                  OFFSET -2.54057 -0.884171 1.56538
                  CHANNELS 3 Zrotation Xrotation Yrotation
                  End Site
                  {
                    OFFSET -1.62519 -0.234802 1.16502
                  }
                }
              }
              JOINT rMid1
              {
                OFFSET -8.24714 1.18213 3.41376
                CHANNELS 3 Zrotation Xrotation Yrotation
                JOINT rMid2
                {
                  OFFSET -3.10165 -0.590103 1.0647
                  CHANNELS 3 Zrotation Xrotation Yrotation
                  End Site
                  {
                    OFFSET -2.48547 -0.328903 0.83742
                  }
                }
              }
              JOINT rRing1
              {
                OFFSET -8.82822 0.546677 1.51678
                CHANNELS 3 Zrotation Xrotation Yrotation
                JOINT rRing2
                {
                  OFFSET -2.60934 -0.819778 -0.0198488
                  CHANNELS 3 Zrotation Xrotation Yrotation
                  End Site
                  {
                    OFFSET -2.33842 -0.294052 0.168128
                  }
                }
              }
              JOINT rPinky1
              {
                OFFSET -8.27202 -0.0477905 -0.4584
                CHANNELS 3 Zrotation Xrotation Yrotation
                JOINT rPinky2
                {
                  OFFSET -1.82734 -0.647385 -0.700984
                  CHANNELS 3 Zrotation Xrotation Yrotation
                  End Site
                  {
                    OFFSET -1.69225 -0.51767 -0.607171
                  }
                }
              }
            }
          }
        }
      }
      JOINT lCollar
      {
        OFFSET 2.68224 19.2634 -4.8768
        CHANNELS 3 Zrotation Xrotation Yrotation
        JOINT lShldr
        {
          OFFSET 8.77824 -1.95073 1.46304
          CHANNELS 3 Zrotation Xrotation Yrotation
          JOINT lForeArm
          {
            OFFSET 28.1742 -1.7115 0.48768
            CHANNELS 3 Zrotation Xrotation Yrotation
            JOINT lHand
            {
              OFFSET 22.5879 0.773209 7.07136
              CHANNELS 3 Zrotation Xrotation Yrotation
              JOINT lThumb1
              {
                OFFSET 1.2192 -0.487915 3.41376
                CHANNELS 3 Zrotation Xrotation Yrotation
                JOINT lThumb2
                {
                  OFFSET 3.37035 -0.52449 3.41376
                  CHANNELS 3 Zrotation Xrotation Yrotation
                  End Site
                  {
                    OFFSET 1.78271 -1.18214 1.43049
                  }
                }
              }
              JOINT lIndex1
              {
                OFFSET 7.75947 0.938293 5.60832
                CHANNELS 3 Zrotation Xrotation Yrotation
                JOINT lIndex2
                {
                  OFFSET 2.54057 -0.884171 1.56538
                  CHANNELS 3 Zrotation Xrotation Yrotation
                  End Site
                  {
                    OFFSET 1.62519 -0.234802 1.16502
                  }
                }
              }
              JOINT lMid1
              {
                OFFSET 8.24714 1.18213 3.41376
                CHANNELS 3 Zrotation Xrotation Yrotation
                JOINT lMid2
                {
                  OFFSET 3.10165 -0.590103 1.0647
                  CHANNELS 3 Zrotation Xrotation Yrotation
                  End Site
                  {
                    OFFSET 2.48547 -0.328903 0.83742
                  }
                }
              }
              JOINT lRing1
              {
                OFFSET 8.82822 0.546677 1.51678
                CHANNELS 3 Zrotation Xrotation Yrotation
                JOINT lRing2
                {
                  OFFSET 2.60934 -0.819778 -0.0198488
                  CHANNELS 3 Zrotation Xrotation Yrotation
                  End Site
                  {
                    OFFSET 2.33842 -0.294052 0.168128
                  }
                }
              }
              JOINT lPinky1
              {
                OFFSET 8.27202 -0.0477905 -0.4584
                CHANNELS 3 Zrotation Xrotation Yrotation
                JOINT lPinky2
                {
                  OFFSET 1.82734 -0.647385 -0.700984
                  CHANNELS 3 Zrotation Xrotation Yrotation
                  End Site
                  {
                    OFFSET 1.69225 -0.51767 -0.607171
                  }
                }
              }
            }
          }
        }
      }
    }
  }
  JOINT rButtock
  {
    OFFSET -8.77824 4.35084 1.2192
    CHANNELS 3 Zrotation Xrotation Yrotation
    JOINT rThigh
    {
      OFFSET 0 -1.70687 -2.19456
      CHANNELS 3 Zrotation Xrotation Yrotation
      JOINT rShin
      {
        OFFSET 0 -36.8199 0.73152
        CHANNELS 3 Zrotation Xrotation Yrotation
        JOINT rFoot
        {
          OFFSET 0.73152 -45.1104 -5.12064
          CHANNELS 3 Zrotation Xrotation Yrotation
          End Site
          {
            OFFSET -1.1221 -3.69964 12.103
          }
        }
      }
    }
  }
  JOINT lButtock
  {
    OFFSET 8.77824 4.35084 1.2192
    CHANNELS 3 Zrotation Xrotation Yrotation
    JOINT lThigh
    {
      OFFSET 0 -1.70687 -2.19456
      CHANNELS 3 Zrotation Xrotation Yrotation
      JOINT lShin
      {
        OFFSET 0 -36.8199 0.73152
        CHANNELS 3 Zrotation Xrotation Yrotation
        JOINT lFoot
        {
          OFFSET -0.73152 -45.1104 -5.12064
          CHANNELS 3 Zrotation Xrotation Yrotation
          End Site
          {
            OFFSET 1.1221 -3.69964 12.103
          }
        }
      }
    }
  }
}
MOTION
Frames:	7
Frame Time:	0.03333
0.0 0.0 0.0 0.0 0.0 0.0 0.0 0.0 0.0 0.0 0.0 0.0 0.0 0.0 0.0 0.0 0.0 0.0 0.0 0.0 0.0 0.0 0.0 0.0 0.0 0.0 0.0 0.0 0.0 0.0 0.0 0.0 0.0 0.0 0.0 0.0 0.0 0.0 0.0 0.0 0.0 0.0 0.0 0.0 0.0 0.0 0.0 0.0 0.0 0.0 0.0 0.0 0.0 0.0 0.0 0.0 0.0 0.0 0.0 0.0 0.0 0.0 0.0 0.0 0.0 0.0 0.0 0.0 0.0 0.0 0.0 0.0 0.0 0.0 0.0 0.0 0.0 0.0 0.0 0.0 0.0 0.0 0.0 0.0 0.0 0.0 0.0 0.0 0.0 0.0 0.0 0.0 0.0 0.0 0.0 0.0 0.0 0.0 0.0 0.0 0.0 0.0 0.0 0.0 0.0 0.0 0.0 0.0 0.0 0.0 0.0 0.0 0.0 0.0 0.0 0.0 0.0 0.0 0.0 0.0 0.0 0.0 0.0 0.0 0.0 0.0 0.0 0.0 0.0 0.0 0.0 0.0
1.9402 56.7644 3.2159 165.549663 -72.865101 -165.663399 -5.589054 12.561527 -155.77479 -4.062517 4.120916 155.535495 -13.994256 27.294151 -72.859119 43.072188 -1.074177 46.01545 0.000712 0.0 0.003517 0.000712 0.0 0.003517 -143.157146 39.09794 147.58592 -35.572284 22.351559 9.24429 4.843652 -3.347978 -70.345881 159.107749 -33.493603 140.204093 -12.925196 12.052108 3.309939 167.543783 -74.953891 85.022482 -168.217041 -45.959053 121.73227 -154.575141 -7.462571 118.838312 -6.645823 17.108873 4.326388 167.031349 -64.926592 132.392356 -145.117591 0.186162 -179.185198 -148.127461 -43.030466 -170.601537 -24.990913 -37.659076 -24.059941 15.52328 41.655283 8.073932 154.834547 -73.917033 179.857247 -162.664555 -4.958669 142.208832 176.520806 42.111988 -51.711552 166.181672 9.465006 -139.974545 -1.843003 -1.826885 0.254442 104.840449 10.208417 -95.499407 46.208003 39.65344 -36.317912 172.006494 -22.506046 -111.529777 -5.89299 -18.351925 2.545555 13.443676 36.396797 -10.646469 145.119432 0.241047 179.202439 23.984401 -71.883954 45.205477 -17.317888 60.66029 -12.79396 147.918296 10.369753 142.78041 -0.000616 -0.000419 0.000792 -27.553259 -51.12044 -22.450637 -25.330841 36.805258 -52.228737 -14.721313 -46.52818 98.713634 -0.004575 -0.000419 -0.002288 6.421743 -15.63912 76.35992 79.864659 5.113859 90.133865 -132.426367 -14.191782 162.848161
3.0674 57.1939 4.8421 165.282308 -71.342949 -165.414029 -7.517073 17.162454 1.929074 6.486468 -6.974919 -1.770951 4.855121 35.45495 149.283459 -23.64508 46.087711 -167.54829 -0.002469 0.0 -0.002629 0.003289 0.0 0.001231 -59.83512 -86.721127 -81.635353 40.250125 8.806503 -21.672142 -130.422465 -10.033918 139.059879 63.083701 -65.238941 51.184337 -121.365108 30.329474 71.957354 24.520827 -38.333406 26.878759 -145.340158 -6.264066 118.677571 11.245714 -2.358663 -9.93581 -160.098564 -4.901161 142.968657 -88.64331 63.697134 80.365206 -145.119367 0.267912 -179.212182 12.114239 44.703186 -3.863002 -153.762581 43.51286 -148.653268 -26.066925 -40.260612 -26.776107 80.165872 68.372225 -83.260818 -14.892605 7.67595 -66.331082 -123.074253 66.56674 -110.95899 157.58974 28.428213 -132.737863 164.886397 -2.560454 -89.606597 -6.591301 -53.598574 -14.56808 -60.463428 -70.522866 -15.711466 160.06174 -21.264257 -114.726967 150.786855 19.32623 -137.026079 128.873017 51.844408 -118.105248 72.134866 72.974158 -89.989954 158.790964 -26.832505 -179.925959 145.541904 13.245692 142.147721 3.359165 -12.6136 6.608724 0.001598 -0.000257 0.001598 -26.656322 -52.890713 147.810857 31.135174 -37.780917 50.968068 139.256628 22.993969 -152.779295 -0.002204 0.000971 -0.000551 4.453862 -15.701521 69.433278 77.880447 8.288267 56.067216 65.526691 86.134407 -170.592506
4.3852 57.5402 6.5600000000000005 166.315551 -69.697464 -166.107846 -8.091093 17.186238 2.0814 6.543171 -7.330385 -2.135091 8.561861 29.412303 108.582659 -40.219035 23.368733 -126.600519 -0.002156 -0.0 0.001741 -0.002518 0.0 -0.002197 4.23959 -44.74278 -8.647213 50.890465 -5.022977 3.357868 112.043059 -44.410091 53.3074 177.300213 14.901851 148.255938 -5.433503 5.264946 1.078475 -136.003842 -38.445622 115.376728 -46.208421 39.652781 36.318487 -102.516214 46.776363 77.14301 -160.09821 -4.901517 142.967583 -164.038029 -7.048856 143.184129 -70.379357 -72.129816 -87.280206 -52.282304 -82.146189 -78.140142 -140.975077 -0.022286 -138.020419 1.44337 -2.71731 -2.823639 14.147166 43.061916 -15.995292 95.905109 12.713664 -139.979243 -2.126606 20.345495 120.696104 167.386348 7.026305 -140.66205 -87.247935 -50.688736 -36.415366 90.237872 38.546482 -51.866989 26.600499 30.072598 -19.41509 21.736566 33.374698 -13.040482 0.338398 0.982242 -0.188313 27.693419 51.088909 -22.912031 6e-05 -0.01853 0.005848 154.262873 -64.67241 178.370153 -6.226919 18.789864 -5.5729 159.949253 55.508816 149.962719 -0.0 -0.000474 -0.00033 -24.941196 -52.20668 76.587711 38.833914 5.315376 40.281307 -107.833181 -31.330664 154.429051 0.008567 0.00088 0.008567 3.916821 -15.684135 -0.0 4.587551 73.727718 -132.881008 -84.84468 40.13476 -175.305453
5.8318 57.843999999999994 8.3547 168.116284 -67.884533 -167.333974 -6.633521 16.913896 -31.381751 8.353327 -3.380559 30.724309 -13.741984 26.8842 -73.244843 43.53142 -0.647721 51.483461 -0.002473 0.0 -0.00425 -0.002349 0.0 -9.7e-05 -142.973886 39.431783 147.390416 -37.847355 23.069606 10.742238 -178.626108 0.150277 -141.376659 -9.180127 37.272785 2.886271 51.060187 -41.204089 12.855807 -147.180434 -21.441007 125.529314 37.216963 -57.917413 -0.641555 90.277446 -63.442281 33.772921 1.28138 -3.803178 -0.678815 91.947955 -78.577806 62.966538 -9.1e-05 0.063582 0.021308 11.105736 -13.792358 -1.713528 -150.031857 28.966038 -145.936382 -153.654482 29.662854 -145.126422 0.000161 -5.4e-05 -0.000376 -66.460911 14.151837 -1.598028 8.765467 12.043918 -87.756438 6.808591 -25.180656 5.995908 -83.253815 -50.259031 -33.615646 31.898794 5.689226 8.148432 19.125468 24.073066 -13.344566 -104.075166 -62.311079 -52.111531 -153.674313 -76.484766 -121.22324 -2.475607 1.609172 -0.438816 -0.003792 1.771492 -0.555817 -7.305566 26.539575 -4.021465 6.263883 -14.0511 5.885852 -1.899964 -2.372669 0.764103 179.994936 75.751351 0.004636 167.027267 20.37438 -0.0 -12.350412 32.49264 117.914828 -2.129913 44.484455 -80.146237 -179.990384 75.749693 -0.006579 -174.857241 58.436463 -4.331694 34.192834 66.785398 52.34054 -92.47788 35.571633 -6.662656
7.338799999999999 58.072500000000005 10.2044 170.028743 -65.820633 -168.669757 -6.54712 12.99762 -152.965409 -3.206672 5.596793 152.134607 -11.909382 32.773423 -111.381498 44.443554 24.70913 81.433755 0.000449 -0.0 -0.00313 0.000449 -0.0 -0.00313 -147.86618 28.560033 152.690168 -32.979394 -0.418143 0.280887 65.9617 34.67987 -103.810103 -179.365124 23.949241 147.623355 -78.030955 38.689174 42.412445 22.226851 -25.460386 20.03418 -149.816468 -14.317304 120.60081 -47.68476 55.122763 32.75656 -36.03568 51.723318 29.832001 -7.188262 26.202497 6.142148 -145.117874 0.226329 -179.200183 -76.145362 -77.981998 -97.663511 -117.24148 -36.64517 -115.188044 -146.402199 11.010499 -142.029919 14.014073 42.855124 -15.854925 110.155721 -1.303579 -135.205186 0.088229 -1.131268 114.948767 168.539215 4.056904 -141.407864 93.742712 37.963718 -53.549285 159.418425 -32.558236 -79.424812 148.883688 -12.609911 -120.246053 171.9326 -34.797332 -117.685006 125.642309 49.838894 -115.27295 163.38311 -5.637501 -143.166892 -0.00215 0.063674 -0.020653 -10.321074 0.039325 0.062826 157.3274 57.246696 150.512438 -10.011973 24.888526 -4.153867 0.001424 0.000593 -0.0 -19.236157 -55.64246 -22.913323 -11.427078 30.264754 81.690153 -171.276303 -58.03181 78.4715 -0.010555 0.001118 -0.010555 2.098195 -19.137207 -0.0 -8.952119 70.477221 -92.283054 -79.908884 64.436945 178.652069
8.8933 58.1931 12.1315 171.727778 -63.479595 -169.950009 -5.165663 15.254722 -103.038845 4.42496 5.150377 101.914346 -13.479736 29.062081 -89.870155 46.419802 10.456488 67.56259 0.002715 -0.0 -0.000765 0.003113 0.0 0.003161 -33.837684 -85.665768 -55.25475 55.002233 34.776986 -25.135147 101.912336 -38.005589 50.057715 -177.431045 28.793659 146.990919 -78.030632 38.690466 42.412343 -37.67804 -1.094194 41.235941 -0.327668 0.530114 0.184722 -8.105928 24.141051 7.399824 -161.152868 -8.160538 143.465927 -163.294442 -4.785785 142.965077 -145.099241 -1.5204 -178.648729 12.263726 44.794104 -3.854971 -82.836567 -50.987706 -81.238118 -93.598769 -50.941459 -93.84059 9.652039 34.836 -11.200039 98.490687 10.654861 -136.65424 0.153905 18.358326 110.714042 168.066307 4.84571 -141.216992 178.927546 -16.453639 -89.422403 142.579106 11.401959 -74.722093 27.422243 30.63886 -20.09906 -68.939337 -57.637447 -24.179393 160.674843 -6.667675 -143.244762 11.856213 33.636487 -9.680644 70.641567 72.965741 -88.425398 -2.709345 -44.133431 11.557008 29.629159 -40.969004 28.616954 22.344996 -40.085467 23.997161 -0.000132 -2.2e-05 0.00017 -21.701703 -60.432119 155.412516 22.5797 -37.785571 119.275601 -0.306619 -58.369101 94.580971 -0.000377 0.001658 -0.000189 1.094745 -23.438868 162.620957 52.601706 -72.746212 31.846742 147.398571 59.323801 114.911297
